<svg height="511pt" viewBox="-42 0 511 511.98933" width="511pt" xmlns="http://www.w3.org/2000/svg"><path d="m213.828125 511.988281c-1.367187 0-2.753906-.191406-4.097656-.53125-2.089844-.554687-209.234375-57.558593-209.234375-251.734375v-170.6875c0-6.699218 4.160156-12.695312 10.453125-14.996094l197.332031-73.046874c3.585938-1.324219 7.53125-1.324219 11.113281 0l197.335938 73.046874c6.269531 2.300782 10.429687 8.296876 10.429687 14.996094v170.6875c0 194.199219-207.144531 251.179688-209.234375 251.734375-1.347656.339844-2.734375.53125-4.097656.53125zm-181.332031-411.816406v159.550781c0 155.691406 154.28125 211.09375 181.394531 219.605469 28.160156-8.574219 181.269531-62.507813 181.269531-219.605469v-159.550781l-181.332031-67.117187zm0 0"/><path d="m213.828125 394.65625c-76.457031 0-138.667969-62.207031-138.667969-138.667969 0-76.457031 62.210938-138.664062 138.667969-138.664062s138.667969 62.207031 138.667969 138.664062c0 76.460938-62.210938 138.667969-138.667969 138.667969zm0-245.332031c-58.816406 0-106.667969 47.847656-106.667969 106.664062 0 58.816407 47.851563 106.667969 106.667969 106.667969s106.667969-47.851562 106.667969-106.667969c0-58.816406-47.851563-106.664062-106.667969-106.664062zm0 0"/><path d="m251.160156 309.324219c-4.09375 0-8.191406-1.558594-11.304687-4.695313l-37.335938-37.332031c-3.007812-3.007813-4.691406-7.0625-4.691406-11.308594v-58.664062c0-8.832031 7.167969-16 16-16s16 7.167969 16 16v52.03125l32.640625 32.640625c6.25 6.25 6.25 16.382812 0 22.632812-3.117188 3.136719-7.210938 4.695313-11.308594 4.695313zm0 0"/></svg>