<svg id="Capa_1" enable-background="new 0 0 512 512" height="512" viewBox="0 0 512 512" width="512" xmlns="http://www.w3.org/2000/svg"><g><path d="m427.666 81.877v-22.53c0-27.849-22.657-50.505-50.505-50.505s-50.505 22.656-50.505 50.505v22.53h-141.311v-22.53c0-27.849-22.657-50.505-50.505-50.505s-50.506 22.656-50.506 50.504v22.53h-84.334v421.282h512v-421.281zm-71.011-22.531c0-11.307 9.199-20.505 20.505-20.505s20.505 9.198 20.505 20.505v22.53h-41.011v-22.53zm-242.321 0c0-11.307 9.199-20.505 20.505-20.505s20.505 9.198 20.505 20.505v22.53h-41.011v-22.53zm-30 52.531v29.546h30v-29.546h212.321v29.546h30v-29.546h125.345v63.248h-452v-63.248zm-54.334 361.281v-268.034h452v268.034z"/><path d="m166.008 276.902h20.472v135.615h30v-165.615h-50.472z"/><path d="m296.01 302.552h-14.974v-25.65h54.956v-30h-84.956v85.65h44.974c13.775 0 24.982 11.207 24.982 24.982s-11.207 24.982-24.982 24.982h-44.974v30h44.974c30.317 0 54.982-24.665 54.982-54.982s-24.665-54.982-54.982-54.982z"/></g></svg>